# xmcd
#
# Track frame offsets:
# 150
# 8315
# 18995
# 26952
# 36080
# 44117
# 55307
# 65542
# 78265
# 88820
# 97497
# 109560
# 121372
# 136347
# 145062
# 155835
# 167605
# 180610
#
# Disc length: 2504 seconds
#
#
# Revision: 0
# Processed by: cddbd v1.5.1PL0 Copyright (c) Steve Scherf et al.
# Submitted via: FreeRIP 2.942 
#
DISCID=f509c612
DTITLE=Roger Miller - Roger Miller Classics
DYEAR=1999
DGENRE=Country
TTITLE0=In the Summer Time
TTITLE1=When Two Worlds Colide
TTITLE2=Dang Me
TTITLE3=Chug-A-Lug
TTITLE4=Do-Wacka-Do
TTITLE5=King of the Road
TTITLE6=Engine Engine #9
TTITLE7=The Last Word in Lonesome Is Me
TTITLE8=Kansas City Star
TTITLE9=England Swings
TTITLE10=Husbands and Wives
TTITLE11=Walkin in the Sunshine
TTITLE12=Me and Bobbie McGee
TTITLE13=You Can't Rolor Skate in a Buffalo Herd
TTITLE14=Don't We All Have the Right
TTITLE15=Open Up Your Heart
TTITLE16=I Believe in the Sunshine
TTITLE17=Our Love
EXTD=
EXTT0=
EXTT1=
EXTT2=
EXTT3=
EXTT4=
EXTT5=
EXTT6=
EXTT7=
EXTT8=
EXTT9=
EXTT10=
EXTT11=
EXTT12=
EXTT13=
EXTT14=
EXTT15=
EXTT16=
EXTT17=
PLAYORDER=
